<!DOCTYPE svg PUBLIC "-//W3C//DTD SVG 1.1//EN" "http://www.w3.org/Graphics/SVG/1.1/DTD/svg11.dtd">
<!-- Uploaded to: SVG Repo, www.svgrepo.com, Transformed by: SVG Repo Mixer Tools -->
<svg fill="#a7a7a7" width="800px" height="800px" viewBox="0 0 64 64" xmlns="http://www.w3.org/2000/svg" stroke="#a7a7a7">
<g id="SVGRepo_bgCarrier" stroke-width="0"/>
<g id="SVGRepo_tracerCarrier" stroke-linecap="round" stroke-linejoin="round"/>
<g id="SVGRepo_iconCarrier"> <title/> <g data-name="Team Skill" id="Team_Skill"> <path d="M21,57v3.5H19V57a3,3,0,0,0-.88-2.13,3.29,3.29,0,0,0-.81-.57,2.45,2.45,0,0,1-.26.06,2.43,2.43,0,0,1-.26.06,3.84,3.84,0,0,1-.76.08H16a4,4,0,0,1-.77-.08l-.24,0-.27-.07A3,3,0,0,0,13,57v3.5H11V57a5,5,0,0,1,1.81-3.83,4.51,4.51,0,1,1,6.38,0c.12.09.23.19.34.29A5.05,5.05,0,0,1,21,57Z"/> <path d="M21,35.5V39H19V35.5a3,3,0,0,0-.88-2.13,3.29,3.29,0,0,0-.81-.57,2.45,2.45,0,0,1-.26.06,2.43,2.43,0,0,1-.26.06A3.84,3.84,0,0,1,16,33H16a4,4,0,0,1-.77-.08l-.24,0-.27-.07A3,3,0,0,0,13,35.5V39H11V35.5a5,5,0,0,1,1.81-3.83,4.51,4.51,0,1,1,6.38,0c.12.09.23.19.34.29A5.05,5.05,0,0,1,21,35.5Z"/> <path d="M21,14v3.5H19V14a3,3,0,0,0-.88-2.13,3.29,3.29,0,0,0-.81-.57,2.45,2.45,0,0,1-.26.06,2.43,2.43,0,0,1-.26.06,3.84,3.84,0,0,1-.76.08H16a4,4,0,0,1-.77-.08l-.24,0-.27-.07A3,3,0,0,0,13,14v3.5H11V14a5,5,0,0,1,1.81-3.83,4.51,4.51,0,1,1,6.38,0c.12.09.23.19.34.29A5.05,5.05,0,0,1,21,14Z"/> <path d="M50,28H30a3,3,0,0,0-3,3v2a3,3,0,0,0,3,3H50a3,3,0,0,0,3-3V31A3,3,0,0,0,50,28Zm1,5a1,1,0,0,1-1,1H40V30H50a1,1,0,0,1,1,1Z"/> <path d="M50,7H30a3,3,0,0,0-3,3v2a3,3,0,0,0,3,3H50a3,3,0,0,0,3-3V10A3,3,0,0,0,50,7Zm1,5a1,1,0,0,1-1,1H37V9H50a1,1,0,0,1,1,1Z"/> <path d="M50,49H30a3,3,0,0,0-3,3v2a3,3,0,0,0,3,3H50a3,3,0,0,0,3-3V52A3,3,0,0,0,50,49Zm1,5a1,1,0,0,1-1,1H45V51h5a1,1,0,0,1,1,1Z"/> </g> </g>
</svg>