<svg width="20" height="20" viewBox="0 0 20 20" fill="none" xmlns="http://www.w3.org/2000/svg">
<path d="M8.33317 10C10.1748 10 11.6665 8.50837 11.6665 6.66671C11.6665 4.82504 10.1748 3.33337 8.33317 3.33337C6.4915 3.33337 4.99984 4.82504 4.99984 6.66671C4.99984 8.50837 6.4915 10 8.33317 10ZM8.33317 5.00004C8.7752 5.00004 9.19912 5.17564 9.51168 5.4882C9.82424 5.80076 9.99984 6.22468 9.99984 6.66671C9.99984 7.10873 9.82424 7.53266 9.51168 7.84522C9.19912 8.15778 8.7752 8.33337 8.33317 8.33337C7.40817 8.33337 6.6665 7.59171 6.6665 6.66671C6.6665 5.74171 7.4165 5.00004 8.33317 5.00004ZM7.72484 16.6667H1.6665V14.1667C1.6665 11.9417 6.10817 10.8334 8.33317 10.8334C9.19984 10.8334 10.4165 11.0084 11.5498 11.3417C10.8332 11.625 10.1665 12.0167 9.58317 12.5C9.1665 12.45 8.74984 12.4167 8.33317 12.4167C5.85817 12.4167 3.24984 13.6334 3.24984 14.1667V15.0834H7.68317C7.6665 15.125 7.6415 15.1667 7.6165 15.2084L7.37484 15.8334L7.6165 16.4584C7.64984 16.525 7.6915 16.5917 7.72484 16.6667ZM14.1665 15C14.6332 15 14.9998 15.3667 14.9998 15.8334C14.9998 16.3 14.6332 16.6667 14.1665 16.6667C13.6998 16.6667 13.3332 16.3 13.3332 15.8334C13.3332 15.3667 13.6998 15 14.1665 15ZM14.1665 12.5C11.8915 12.5 9.94984 13.8834 9.1665 15.8334C9.94984 17.7834 11.8915 19.1667 14.1665 19.1667C16.4415 19.1667 18.3832 17.7834 19.1665 15.8334C18.3832 13.8834 16.4415 12.5 14.1665 12.5ZM14.1665 17.9167C13.614 17.9167 13.0841 17.6972 12.6934 17.3065C12.3027 16.9158 12.0832 16.3859 12.0832 15.8334C12.0832 15.2808 12.3027 14.7509 12.6934 14.3602C13.0841 13.9695 13.614 13.75 14.1665 13.75C14.719 13.75 15.2489 13.9695 15.6396 14.3602C16.0303 14.7509 16.2498 15.2808 16.2498 15.8334C16.2498 16.3859 16.0303 16.9158 15.6396 17.3065C15.2489 17.6972 14.719 17.9167 14.1665 17.9167Z" fill="#A7A7A7"/>
</svg>
