<svg width="24" height="24" viewBox="0 0 24 24" fill="none" xmlns="http://www.w3.org/2000/svg">
<path d="M23.7588 6.19795L20.9088 4.00195C20.7151 3.87762 20.5046 3.78184 20.2836 3.71755C20.0635 3.64632 19.8344 3.60673 19.6032 3.59995H11.4L12.3612 9.59995H19.6032C19.8 9.59995 20.046 9.55555 20.2824 9.48235C20.5188 9.40915 20.7468 9.30835 20.9076 9.19915L23.7576 7.00075C23.9196 6.89155 24 6.74635 24 6.59995C24 6.45355 23.9196 6.30835 23.7588 6.19795ZM10.2 1.19995H9C8.84087 1.19995 8.68826 1.26317 8.57574 1.37569C8.46321 1.48821 8.4 1.64082 8.4 1.79995V5.99995H4.3968C4.1976 5.99995 3.9528 6.04435 3.7164 6.11875C3.4788 6.19075 3.252 6.29035 3.0912 6.40195L0.2412 8.59795C0.0792 8.70715 0 8.85355 0 8.99995C0 9.14515 0.0792 9.29035 0.2412 9.40195L3.0912 11.6004C3.252 11.7096 3.4788 11.8104 3.7164 11.8824C3.9528 11.9556 4.1976 12 4.3968 12H8.4V22.2C8.4 22.3591 8.46321 22.5117 8.57574 22.6242C8.68826 22.7367 8.84087 22.8 9 22.8H10.2C10.3591 22.8 10.5117 22.7367 10.6243 22.6242C10.7368 22.5117 10.8 22.3591 10.8 22.2V1.79995C10.8 1.64082 10.7368 1.48821 10.6243 1.37569C10.5117 1.26317 10.3591 1.19995 10.2 1.19995Z" fill="#A7A7A7"/>
</svg>
