<svg width="24" height="24" viewBox="0 0 24 24" fill="none" xmlns="http://www.w3.org/2000/svg">
<path d="M16.5 7.99997H14.414L15.707 6.70697C15.7998 6.61413 15.8735 6.5039 15.9237 6.3826C15.974 6.26129 15.9998 6.13127 15.9998 5.99997C15.9998 5.86867 15.974 5.73865 15.9237 5.61735C15.8735 5.49604 15.7998 5.38582 15.707 5.29297C15.6142 5.20013 15.5039 5.12648 15.3826 5.07623C15.2613 5.02598 15.1313 5.00012 15 5.00012C14.8687 5.00012 14.7387 5.02598 14.6174 5.07623C14.4961 5.12648 14.3858 5.20013 14.293 5.29297L10.586 8.99997L14.293 12.707C14.3857 12.8002 14.4958 12.8741 14.6171 12.9246C14.7385 12.975 14.8686 13.001 15 13.001C15.1314 13.001 15.2615 12.975 15.3829 12.9246C15.5042 12.8741 15.6143 12.8002 15.707 12.707C15.7999 12.6142 15.8737 12.504 15.924 12.3827C15.9743 12.2613 16.0002 12.1313 16.0002 12C16.0002 11.8686 15.9743 11.7386 15.924 11.6173C15.8737 11.496 15.7999 11.3858 15.707 11.293L14.414 9.99997H16.5C17.879 9.99997 19 11.346 19 13C19 14.654 17.654 16 16 16H8C6.346 16 5 14.654 5 13C5 11.346 6.346 9.99997 8 9.99997C8.26522 9.99997 8.51957 9.89461 8.70711 9.70708C8.89464 9.51954 9 9.26519 9 8.99997C9 8.73475 8.89464 8.4804 8.70711 8.29286C8.51957 8.10533 8.26522 7.99997 8 7.99997C5.243 7.99997 3 10.243 3 13C3 15.757 5.243 18 8 18H16C18.757 18 21 15.757 21 13C21 10.243 18.981 7.99997 16.5 7.99997Z" fill="#A7A7A7"/>
</svg>
