<svg width="20" height="20" viewBox="0 0 20 20" fill="none" xmlns="http://www.w3.org/2000/svg">
<path d="M14.1665 15C14.6665 15 14.9998 15.3333 14.9998 15.8333C14.9998 16.3333 14.6665 16.6666 14.1665 16.6666C13.6665 16.6666 13.3332 16.3333 13.3332 15.8333C13.3332 15.3333 13.6665 15 14.1665 15ZM14.1665 12.5C11.9165 12.5 9.9165 13.9166 9.1665 15.8333C9.9165 17.75 11.9165 19.1666 14.1665 19.1666C16.4165 19.1666 18.4165 17.75 19.1665 15.8333C18.4165 13.9166 16.4165 12.5 14.1665 12.5ZM14.1665 17.9166C12.9998 17.9166 12.0832 17 12.0832 15.8333C12.0832 14.6666 12.9998 13.75 14.1665 13.75C15.3332 13.75 16.2498 14.6666 16.2498 15.8333C16.2498 17 15.3332 17.9166 14.1665 17.9166ZM7.58317 16.4166L7.33317 15.8333H3.33317V6.66663H16.6665V11.3333C17.2498 11.5833 17.8332 11.8333 18.3332 12.25V6.66663C18.3332 6.24996 18.1665 5.83329 17.8332 5.49996C17.4998 5.16663 17.1665 4.99996 16.6665 4.99996H13.3332V3.33329C13.3332 2.83329 13.1665 2.49996 12.8332 2.16663C12.4998 1.83329 12.1665 1.66663 11.6665 1.66663H8.33317C7.83317 1.66663 7.49984 1.83329 7.1665 2.16663C6.83317 2.49996 6.6665 2.83329 6.6665 3.33329V4.99996H3.33317C2.83317 4.99996 2.49984 5.16663 2.1665 5.49996C1.83317 5.83329 1.6665 6.24996 1.6665 6.66663V15.8333C1.6665 16.25 1.83317 16.6666 2.1665 17C2.49984 17.3333 2.83317 17.5 3.33317 17.5H8.1665C7.9165 17.1666 7.74984 16.8333 7.58317 16.4166ZM8.33317 3.33329H11.6665V4.99996H8.33317V3.33329Z" fill="#A7A7A7"/>
</svg>
