<svg width="20" height="20" viewBox="0 0 20 20" fill="none" xmlns="http://www.w3.org/2000/svg">
<path d="M18.0916 7.25836C19.1332 6.21669 18.6582 5.00002 18.0916 4.40836L15.5916 1.90836C14.5416 0.866689 13.3332 1.34169 12.7416 1.90836L11.3249 3.33336H9.16657C7.58323 3.33336 6.66657 4.16669 6.1999 5.12502L2.4999 8.82502V12.1584L1.90823 12.7417C0.866567 13.7917 1.34157 15 1.90823 15.5917L4.40823 18.0917C4.85823 18.5417 5.34157 18.7084 5.7999 18.7084C6.39157 18.7084 6.93323 18.4167 7.25823 18.0917L9.50823 15.8334H12.4999C13.9166 15.8334 14.6332 14.95 14.8916 14.0834C15.8332 13.8334 16.3499 13.1167 16.5582 12.4167C17.8499 12.0834 18.3332 10.8584 18.3332 10V7.50002H17.8416L18.0916 7.25836ZM16.6666 10C16.6666 10.375 16.5082 10.8334 15.8332 10.8334H14.9999V11.6667C14.9999 12.0417 14.8416 12.5 14.1666 12.5H13.3332V13.3334C13.3332 13.7084 13.1749 14.1667 12.4999 14.1667H8.8249L6.09157 16.9C5.83323 17.1417 5.68323 17 5.59157 16.9084L3.0999 14.425C2.85823 14.1667 2.9999 14.0167 3.09157 13.925L4.16657 12.8417V9.50836L5.83323 7.84169V9.16669C5.83323 10.175 6.4999 11.6667 8.33323 11.6667C10.1666 11.6667 10.8332 10.175 10.8332 9.16669H16.6666V10ZM16.9082 6.07502L15.4916 7.50002H9.16657V9.16669C9.16657 9.54169 9.00823 10 8.33323 10C7.65823 10 7.4999 9.54169 7.4999 9.16669V6.66669C7.4999 6.28336 7.64157 5.00002 9.16657 5.00002H12.0082L13.9082 3.10002C14.1666 2.85836 14.3166 3.00002 14.4082 3.09169L16.8999 5.57502C17.1416 5.83336 16.9999 5.98336 16.9082 6.07502Z" fill="#A7A7A7"/>
</svg>
