<svg width="24" height="24" viewBox="0 0 24 24" fill="none" xmlns="http://www.w3.org/2000/svg">
<path d="M3.03914 7.42861H21.1431M5.14314 2.85718H18.8574C19.4636 2.85718 20.045 3.09799 20.4737 3.52665C20.9023 3.9553 21.1431 4.53668 21.1431 5.14289V18.8457C21.1431 19.452 20.9023 20.0333 20.4737 20.462C20.045 20.8906 19.4636 21.1315 18.8574 21.1315H5.14314C4.53693 21.1315 3.95555 20.8906 3.52689 20.462C3.09824 20.0333 2.85742 19.452 2.85742 18.8457V5.14289C2.85742 4.53668 3.09824 3.9553 3.52689 3.52665C3.95555 3.09799 4.53693 2.85718 5.14314 2.85718Z" stroke="#A7A7A7" stroke-width="1.14286" stroke-linecap="round" stroke-linejoin="round"/>
<path fill-rule="evenodd" clip-rule="evenodd" d="M7.79027 15.0342V13.8011H8.79599C9.55942 13.8011 10.0783 13.3496 10.0783 12.6902C10.0783 12.0879 9.60399 11.6308 8.8177 11.6308C8.00284 11.6308 7.50113 12.0491 7.44513 12.7691H5.88627C5.94456 11.2845 7.08742 10.2856 8.90113 10.2856C10.6874 10.2856 11.6806 11.2731 11.6748 12.4514C11.6691 13.4274 11.0554 14.0696 10.1903 14.2811V14.3874C11.3114 14.5485 11.9926 15.2628 11.9926 16.3405C11.9926 17.7519 10.6646 18.7519 8.84513 18.7519C7.0257 18.7519 5.78684 17.7565 5.71484 16.2331H7.32741C7.3777 16.9142 7.95827 17.3496 8.82342 17.3496C9.67713 17.3496 10.2748 16.8856 10.2748 16.1885C10.2748 15.4742 9.71599 15.0342 8.81199 15.0342H7.79027ZM15.4474 18.5451V12.1325H15.348L13.372 13.4948V11.9268L15.4531 10.4925H17.1331V18.5451H15.4474Z" fill="#A7A7A7"/>
</svg>
