<!DOCTYPE svg PUBLIC "-//W3C//DTD SVG 1.1//EN" "http://www.w3.org/Graphics/SVG/1.1/DTD/svg11.dtd">
<!-- Uploaded to: SVG Repo, www.svgrepo.com, Transformed by: SVG Repo Mixer Tools -->
<svg fill="#000000" width="800px" height="800px" viewBox="0 0 24 24" id="chat-alt-5" data-name="Flat Line" xmlns="http://www.w3.org/2000/svg" class="icon flat-line">
<g id="SVGRepo_bgCarrier" stroke-width="0"/>
<g id="SVGRepo_tracerCarrier" stroke-linecap="round" stroke-linejoin="round"/>
<g id="SVGRepo_iconCarrier">
<path id="secondary" d="M21,4V16a1,1,0,0,1-1,1H13L8,21V17H4a1,1,0,0,1-1-1V4A1,1,0,0,1,4,3H20A1,1,0,0,1,21,4Z" style="fill: #04d361; stroke-width: 2;"/>
<path id="primary-upstroke" d="M12,10h.1M7.9,10H8m8,0h.1" style="fill: none; stroke: #ffffff; stroke-linecap: round; stroke-linejoin: round; stroke-width: 2.5;"/>
<path id="primary" d="M21,4V16a1,1,0,0,1-1,1H13L8,21V17H4a1,1,0,0,1-1-1V4A1,1,0,0,1,4,3H20A1,1,0,0,1,21,4Z" style="fill: none; stroke: #ffffff; stroke-linecap: round; stroke-linejoin: round; stroke-width: 2;"/>
</g>
</svg>