<?xml version="1.0" encoding="UTF-8"?>
<svg xmlns="http://www.w3.org/2000/svg" xmlns:xlink="http://www.w3.org/1999/xlink" width="15px" height="15px" viewBox="0 0 15 15" version="1.1">
<g id="surface1">
<path style="fill:none;stroke-width:2;stroke-linecap:round;stroke-linejoin:round;stroke:rgb(40.784314%,47.45098%,61.176471%);stroke-opacity:1;stroke-miterlimit:4;" d="M 11 20 L 21 20 L 21 10 C 21 8.89375 20.10625 8 19 8 L 15 8 M 11 16 L 11.0125 16 M 17 16 L 17.0125 16 M 7 16 L 7.0125 16 M 11 12 L 11.0125 12 M 17 12 L 17.0125 12 M 7 12 L 7.0125 12 M 11 8 L 11.0125 8 M 7 8 L 7.0125 8 M 15 20 L 15 6 C 15 4.89375 14.10625 4 13 4 L 5 4 C 3.89375 4 3 4.89375 3 6 L 3 20 Z M 15 20 " transform="matrix(0.625,0,0,0.625,0,0)"/>
</g>
</svg>
