<svg width="24" height="24" viewBox="0 0 24 24" fill="none" xmlns="http://www.w3.org/2000/svg">
<path d="M13.5 9.75C13.5 9.55109 13.579 9.36032 13.7197 9.21967C13.8603 9.07902 14.0511 9 14.25 9H18.75C18.9489 9 19.1397 9.07902 19.2803 9.21967C19.421 9.36032 19.5 9.55109 19.5 9.75C19.5 9.94891 19.421 10.1397 19.2803 10.2803C19.1397 10.421 18.9489 10.5 18.75 10.5H14.25C14.0511 10.5 13.8603 10.421 13.7197 10.2803C13.579 10.1397 13.5 9.94891 13.5 9.75ZM14.25 12.75C14.0511 12.75 13.8603 12.829 13.7197 12.9697C13.579 13.1103 13.5 13.3011 13.5 13.5C13.5 13.6989 13.579 13.8897 13.7197 14.0303C13.8603 14.171 14.0511 14.25 14.25 14.25H18.75C18.9489 14.25 19.1397 14.171 19.2803 14.0303C19.421 13.8897 19.5 13.6989 19.5 13.5C19.5 13.3011 19.421 13.1103 19.2803 12.9697C19.1397 12.829 18.9489 12.75 18.75 12.75H14.25ZM9.75 9.75C9.75 10.1478 9.59196 10.5294 9.31066 10.8107C9.02936 11.092 8.64782 11.25 8.25 11.25C7.85218 11.25 7.47064 11.092 7.18934 10.8107C6.90804 10.5294 6.75 10.1478 6.75 9.75C6.75 9.35218 6.90804 8.97064 7.18934 8.68934C7.47064 8.40804 7.85218 8.25 8.25 8.25C8.64782 8.25 9.02936 8.40804 9.31066 8.68934C9.59196 8.97064 9.75 9.35218 9.75 9.75ZM5.25 13.125C5.25 12.8266 5.36853 12.5405 5.5795 12.3295C5.79048 12.1185 6.07663 12 6.375 12H10.125C10.4234 12 10.7095 12.1185 10.9205 12.3295C11.1315 12.5405 11.25 12.8266 11.25 13.125C11.25 13.125 11.25 15.75 8.25 15.75C5.25 15.75 5.25 13.125 5.25 13.125ZM1.5 5.4375C1.5 4.79103 1.75681 4.17105 2.21393 3.71393C2.67105 3.25681 3.29103 3 3.9375 3H20.0625C20.709 3 21.329 3.25681 21.7861 3.71393C22.2432 4.17105 22.5 4.79103 22.5 5.4375V18.5625C22.5 18.8826 22.437 19.1996 22.3145 19.4953C22.192 19.791 22.0124 20.0597 21.7861 20.2861C21.5597 20.5124 21.291 20.692 20.9953 20.8145C20.6996 20.937 20.3826 21 20.0625 21H3.9375C3.6174 21 3.30044 20.937 3.00471 20.8145C2.70898 20.692 2.44027 20.5124 2.21393 20.2861C1.98758 20.0597 1.80804 19.791 1.68554 19.4953C1.56305 19.1996 1.5 18.8826 1.5 18.5625V5.4375ZM3.9375 4.5C3.42 4.5 3 4.92 3 5.4375V18.5625C3 19.08 3.42 19.5 3.9375 19.5H20.0625C20.58 19.5 21 19.08 21 18.5625V5.4375C21 4.92 20.58 4.5 20.0625 4.5H3.9375Z" fill="#A7A7A7"/>
</svg>
