<?xml version="1.0" encoding="UTF-8"?>
<svg xmlns="http://www.w3.org/2000/svg" xmlns:xlink="http://www.w3.org/1999/xlink" width="15px" height="15px" viewBox="0 0 15 15" version="1.1">
<g id="surface1">
<path style=" stroke:none;fill-rule:nonzero;fill:rgb(40.784314%,47.45098%,61.176471%);fill-opacity:1;" d="M 2.671875 2.140625 L 11.246094 2.140625 L 11.246094 5.890625 L 12.316406 5.890625 L 12.316406 1.070312 L 1.601562 1.070312 L 1.601562 13.925781 L 5.351562 13.925781 L 5.351562 12.855469 L 2.671875 12.855469 Z M 2.671875 2.140625 "/>
<path style=" stroke:none;fill-rule:nonzero;fill:rgb(40.784314%,47.45098%,61.176471%);fill-opacity:1;" d="M 3.746094 3.214844 L 10.171875 3.214844 L 10.171875 4.285156 L 3.746094 4.285156 Z M 3.746094 5.355469 L 9.101562 5.355469 L 9.101562 6.425781 L 3.746094 6.425781 Z M 3.746094 7.5 L 6.960938 7.5 L 6.960938 8.570312 L 3.746094 8.570312 Z M 11.355469 6.710938 L 6.429688 11.636719 L 6.421875 13.902344 L 8.703125 13.910156 L 13.628906 8.984375 Z M 12.113281 8.984375 L 11.742188 9.359375 L 10.984375 8.601562 L 11.355469 8.226562 Z M 10.984375 10.117188 L 9.089844 12.007812 L 8.332031 11.25 L 10.226562 9.359375 Z M 7.5 12.835938 L 7.5 12.082031 L 7.574219 12.007812 L 8.332031 12.765625 L 8.261719 12.835938 Z M 7.5 12.835938 "/>
</g>
</svg>
