<svg width="20" height="20" viewBox="0 0 20 20" fill="none" xmlns="http://www.w3.org/2000/svg">
<path d="M10.0002 2.5C10.2126 2.50024 10.4169 2.58157 10.5713 2.72737C10.7257 2.87318 10.8187 3.07246 10.8311 3.2845C10.8436 3.49653 10.7746 3.70532 10.6383 3.86819C10.502 4.03107 10.3086 4.13575 10.0977 4.16083L10.0002 4.16667H5.8335C5.62938 4.16669 5.43238 4.24163 5.27985 4.37726C5.12732 4.5129 5.02988 4.69979 5.006 4.9025L5.00016 5V15C5.00019 15.2041 5.07513 15.4011 5.21076 15.5536C5.34639 15.7062 5.53329 15.8036 5.736 15.8275L5.8335 15.8333H9.5835C9.7959 15.8336 10.0002 15.9149 10.1546 16.0607C10.3091 16.2065 10.402 16.4058 10.4145 16.6178C10.4269 16.8299 10.3579 17.0386 10.2216 17.2015C10.0853 17.3644 9.89191 17.4691 9.681 17.4942L9.5835 17.5H5.8335C5.19582 17.5 4.58223 17.2564 4.11828 16.8189C3.65432 16.3815 3.37507 15.7832 3.33766 15.1467L3.3335 15V5C3.33346 4.36232 3.5771 3.74874 4.01457 3.28478C4.45203 2.82083 5.05025 2.54158 5.68683 2.50417L5.8335 2.5H10.0002ZM14.756 7.05333L17.1127 9.41083C17.2689 9.56711 17.3567 9.77903 17.3567 10C17.3567 10.221 17.2689 10.4329 17.1127 10.5892L14.756 12.9467C14.5996 13.1029 14.3876 13.1907 14.1665 13.1906C13.9455 13.1905 13.7335 13.1026 13.5772 12.9462C13.421 12.7899 13.3332 12.5778 13.3333 12.3568C13.3334 12.1357 13.4213 11.9238 13.5777 11.7675L14.5118 10.8333H10.0002C9.77915 10.8333 9.56719 10.7455 9.41091 10.5893C9.25463 10.433 9.16683 10.221 9.16683 10C9.16683 9.77899 9.25463 9.56702 9.41091 9.41074C9.56719 9.25446 9.77915 9.16667 10.0002 9.16667H14.5118L13.5777 8.2325C13.4213 8.07624 13.3334 7.86427 13.3333 7.64321C13.3332 7.42215 13.421 7.21012 13.5772 7.05375C13.7335 6.89738 13.9455 6.80949 14.1665 6.80941C14.3876 6.80934 14.5996 6.89708 14.756 7.05333Z" fill="#A7A7A7"/>
</svg>
