<?xml version="1.0" encoding="UTF-8"?>
<svg xmlns="http://www.w3.org/2000/svg" xmlns:xlink="http://www.w3.org/1999/xlink" width="15px" height="15px" viewBox="0 0 15 15" version="1.1">
<g id="surface1">
<path style=" stroke:none;fill-rule:nonzero;fill:rgb(40.784314%,47.45098%,61.176471%);fill-opacity:1;" d="M 8.789062 2.714844 L 10.613281 3.199219 C 10.660156 3.210938 10.699219 3.246094 10.707031 3.296875 L 11.1875 5.117188 C 11.203125 5.171875 11.25 5.207031 11.304688 5.207031 C 11.359375 5.207031 11.40625 5.171875 11.417969 5.117188 L 11.898438 3.296875 C 11.910156 3.246094 11.949219 3.210938 11.996094 3.199219 L 13.816406 2.714844 C 13.871094 2.707031 13.90625 2.660156 13.90625 2.605469 C 13.90625 2.546875 13.871094 2.503906 13.816406 2.492188 L 11.996094 2.007812 C 11.949219 2 11.910156 1.960938 11.898438 1.914062 L 11.417969 0.0898438 C 11.40625 0.0390625 11.359375 0 11.304688 0 C 11.25 0 11.203125 0.0390625 11.1875 0.0898438 L 10.707031 1.914062 C 10.699219 1.960938 10.660156 2 10.613281 2.007812 L 8.789062 2.492188 C 8.738281 2.503906 8.699219 2.546875 8.699219 2.605469 C 8.699219 2.660156 8.738281 2.707031 8.789062 2.714844 Z M 8.789062 2.714844 "/>
<path style=" stroke:none;fill-rule:nonzero;fill:rgb(40.784314%,47.45098%,61.176471%);fill-opacity:1;" d="M 2.390625 5.136719 L 2.734375 6.4375 C 2.742188 6.476562 2.777344 6.503906 2.816406 6.503906 C 2.855469 6.503906 2.886719 6.476562 2.898438 6.4375 L 3.242188 5.136719 C 3.246094 5.101562 3.277344 5.074219 3.308594 5.066406 L 4.609375 4.722656 C 4.648438 4.714844 4.675781 4.679688 4.675781 4.640625 C 4.675781 4.601562 4.648438 4.570312 4.609375 4.5625 L 3.308594 4.214844 C 3.277344 4.207031 3.246094 4.183594 3.242188 4.148438 L 2.898438 2.847656 C 2.886719 2.808594 2.855469 2.78125 2.816406 2.78125 C 2.777344 2.78125 2.742188 2.808594 2.734375 2.847656 L 2.390625 4.148438 C 2.382812 4.183594 2.355469 4.207031 2.320312 4.214844 L 1.019531 4.5625 C 0.980469 4.570312 0.953125 4.601562 0.953125 4.640625 C 0.953125 4.679688 0.980469 4.714844 1.019531 4.722656 L 2.320312 5.066406 C 2.355469 5.074219 2.382812 5.101562 2.390625 5.136719 Z M 2.390625 5.136719 "/>
<path style=" stroke:none;fill-rule:nonzero;fill:rgb(40.784314%,47.45098%,61.176471%);fill-opacity:1;" d="M 1.117188 10.769531 L 1.117188 11.941406 C 1.117188 12.132812 1.15625 12.320312 1.234375 12.507812 C 1.308594 12.695312 1.425781 12.882812 1.582031 13.0625 C 1.644531 13.136719 1.71875 13.214844 1.796875 13.285156 L 1.796875 11.410156 C 1.746094 11.371094 1.695312 11.335938 1.648438 11.296875 C 1.445312 11.128906 1.265625 10.953125 1.117188 10.769531 Z M 1.117188 10.769531 "/>
<path style=" stroke:none;fill-rule:nonzero;fill:rgb(40.784314%,47.45098%,61.176471%);fill-opacity:1;" d="M 2.339844 13.714844 C 2.523438 13.832031 2.722656 13.949219 2.9375 14.054688 C 3.03125 14.101562 3.128906 14.144531 3.226562 14.1875 L 3.226562 12.191406 C 2.910156 12.066406 2.613281 11.921875 2.339844 11.765625 Z M 2.339844 13.714844 "/>
<path style=" stroke:none;fill-rule:nonzero;fill:rgb(40.784314%,47.45098%,61.176471%);fill-opacity:1;" d="M 3.769531 12.390625 L 3.769531 14.390625 L 3.738281 14.390625 C 4.125 14.527344 4.546875 14.648438 4.996094 14.742188 L 4.996094 12.710938 C 4.703125 12.652344 4.421875 12.585938 4.152344 12.507812 C 4.023438 12.472656 3.894531 12.433594 3.769531 12.390625 Z M 3.769531 12.390625 "/>
<path style=" stroke:none;fill-rule:nonzero;fill:rgb(40.784314%,47.45098%,61.176471%);fill-opacity:1;" d="M 5.539062 14.839844 C 6.101562 14.929688 6.691406 14.988281 7.308594 15 L 7.308594 12.957031 C 6.695312 12.945312 6.101562 12.894531 5.539062 12.808594 Z M 5.539062 14.839844 "/>
<path style=" stroke:none;fill-rule:nonzero;fill:rgb(40.784314%,47.45098%,61.176471%);fill-opacity:1;" d="M 7.851562 15 C 8.496094 14.984375 9.109375 14.925781 9.691406 14.828125 L 9.691406 12.796875 C 9.105469 12.890625 8.492188 12.945312 7.851562 12.957031 Z M 7.851562 15 "/>
<path style=" stroke:none;fill-rule:nonzero;fill:rgb(40.784314%,47.45098%,61.176471%);fill-opacity:1;" d="M 10.234375 14.726562 C 10.449219 14.679688 10.660156 14.628906 10.859375 14.570312 C 11.066406 14.511719 11.269531 14.449219 11.460938 14.378906 L 11.460938 12.367188 C 11.074219 12.5 10.667969 12.609375 10.234375 12.699219 Z M 10.234375 14.726562 "/>
<path style=" stroke:none;fill-rule:nonzero;fill:rgb(40.784314%,47.45098%,61.176471%);fill-opacity:1;" d="M 12.003906 12.164062 L 12.003906 14.160156 C 12.335938 14.007812 12.632812 13.84375 12.890625 13.667969 L 12.890625 11.726562 C 12.753906 11.808594 12.613281 11.882812 12.464844 11.957031 C 12.316406 12.03125 12.164062 12.097656 12.003906 12.164062 Z M 12.003906 12.164062 "/>
<path style=" stroke:none;fill-rule:nonzero;fill:rgb(40.784314%,47.45098%,61.176471%);fill-opacity:1;" d="M 13.402344 11.382812 L 13.433594 11.382812 L 13.433594 13.222656 C 13.664062 12.992188 13.828125 12.75 13.929688 12.507812 C 14.007812 12.320312 14.046875 12.132812 14.046875 11.941406 L 14.046875 10.769531 C 14.027344 10.789062 14.011719 10.808594 13.996094 10.828125 C 13.828125 11.027344 13.625 11.210938 13.402344 11.382812 Z M 13.402344 11.382812 "/>
<path style=" stroke:none;fill-rule:nonzero;fill:rgb(40.784314%,47.45098%,61.176471%);fill-opacity:1;" d="M 13.929688 9.566406 C 14.007812 9.378906 14.046875 9.191406 14.046875 9 C 14.046875 8.804688 14.007812 8.617188 13.929688 8.429688 C 13.851562 8.242188 13.734375 8.058594 13.582031 7.878906 C 13.273438 7.515625 12.808594 7.175781 12.222656 6.886719 C 11.054688 6.304688 9.40625 5.9375 7.582031 5.9375 C 6.382812 5.9375 5.261719 6.09375 4.300781 6.367188 C 3.339844 6.640625 2.542969 7.03125 1.992188 7.480469 C 1.625 7.78125 1.367188 8.105469 1.234375 8.429688 C 1.15625 8.617188 1.117188 8.804688 1.117188 9 C 1.117188 9.191406 1.15625 9.378906 1.234375 9.566406 C 1.308594 9.753906 1.425781 9.9375 1.582031 10.121094 C 1.890625 10.480469 2.351562 10.824219 2.9375 11.113281 C 4.109375 11.691406 5.757812 12.0625 7.582031 12.0625 C 8.777344 12.0625 9.898438 11.902344 10.859375 11.628906 C 11.820312 11.355469 12.621094 10.964844 13.171875 10.515625 C 13.539062 10.21875 13.792969 9.894531 13.929688 9.566406 Z M 9.765625 9.667969 C 9.679688 9.820312 9.542969 9.949219 9.359375 10.058594 C 9.171875 10.167969 8.9375 10.253906 8.65625 10.308594 C 8.53125 10.332031 8.402344 10.347656 8.265625 10.363281 L 8.320312 11.023438 L 7.265625 11.023438 L 7.261719 10.375 C 6.972656 10.355469 6.699219 10.324219 6.445312 10.269531 C 6.0625 10.191406 5.585938 9.882812 5.585938 9.882812 C 5.546875 9.863281 5.523438 9.832031 5.519531 9.796875 C 5.519531 9.761719 5.539062 9.730469 5.578125 9.703125 L 6.082031 9.371094 C 6.136719 9.335938 6.214844 9.328125 6.273438 9.355469 C 6.273438 9.355469 6.613281 9.570312 6.882812 9.621094 C 7.15625 9.671875 7.425781 9.699219 7.695312 9.699219 C 8.035156 9.699219 8.3125 9.65625 8.527344 9.570312 C 8.738281 9.488281 8.832031 9.359375 8.808594 9.1875 C 8.792969 9.066406 8.730469 8.976562 8.617188 8.90625 C 8.503906 8.839844 8.328125 8.800781 8.082031 8.78125 L 7.277344 8.738281 C 6.804688 8.707031 6.445312 8.621094 6.203125 8.484375 C 5.964844 8.347656 5.863281 8.148438 5.890625 7.890625 C 5.902344 7.75 5.960938 7.628906 6.058594 7.527344 C 6.15625 7.425781 6.285156 7.339844 6.441406 7.273438 C 6.59375 7.203125 6.769531 7.152344 6.96875 7.121094 C 7.050781 7.105469 7.136719 7.097656 7.226562 7.089844 L 7.222656 6.777344 L 7.972656 6.777344 L 7.996094 7.082031 C 8.179688 7.089844 8.351562 7.105469 8.515625 7.132812 C 8.796875 7.175781 9.105469 7.304688 9.105469 7.304688 C 9.144531 7.316406 9.175781 7.335938 9.183594 7.359375 C 9.195312 7.386719 9.1875 7.410156 9.160156 7.425781 L 8.820312 7.65625 C 8.785156 7.683594 8.722656 7.691406 8.667969 7.671875 C 8.667969 7.671875 8.429688 7.578125 8.230469 7.546875 C 8.035156 7.515625 7.832031 7.503906 7.617188 7.503906 C 7.339844 7.503906 7.132812 7.535156 7 7.601562 C 6.863281 7.664062 6.792969 7.75 6.789062 7.859375 C 6.785156 7.957031 6.832031 8.035156 6.933594 8.089844 C 7.03125 8.144531 7.199219 8.179688 7.441406 8.195312 L 8.113281 8.230469 C 8.617188 8.257812 9.007812 8.339844 9.292969 8.484375 C 9.585938 8.632812 9.761719 8.855469 9.828125 9.160156 C 9.867188 9.347656 9.847656 9.519531 9.765625 9.667969 Z M 13.035156 9.226562 L 12.25 9.433594 C 12.226562 9.4375 12.210938 9.457031 12.207031 9.476562 L 12 10.265625 C 11.992188 10.289062 11.972656 10.304688 11.949219 10.304688 C 11.925781 10.304688 11.90625 10.289062 11.898438 10.265625 L 11.691406 9.476562 C 11.6875 9.457031 11.671875 9.4375 11.648438 9.433594 L 10.863281 9.226562 C 10.839844 9.222656 10.820312 9.199219 10.820312 9.179688 C 10.820312 9.152344 10.839844 9.132812 10.863281 9.128906 L 11.648438 8.921875 C 11.671875 8.914062 11.6875 8.898438 11.691406 8.878906 L 11.898438 8.089844 C 11.90625 8.066406 11.925781 8.050781 11.949219 8.050781 C 11.972656 8.050781 11.992188 8.066406 12 8.089844 L 12.207031 8.878906 C 12.210938 8.898438 12.226562 8.914062 12.25 8.921875 L 13.035156 9.128906 C 13.058594 9.132812 13.078125 9.152344 13.078125 9.179688 C 13.078125 9.199219 13.058594 9.222656 13.035156 9.226562 Z M 13.035156 9.226562 "/>
</g>
</svg>
