<?xml version="1.0" encoding="UTF-8"?>
<svg xmlns="http://www.w3.org/2000/svg" xmlns:xlink="http://www.w3.org/1999/xlink" width="15px" height="15px" viewBox="0 0 15 15" version="1.1">
<g id="surface1">
<path style="fill-rule:nonzero;fill:rgb(40.784314%,47.45098%,61.176471%);fill-opacity:1;stroke-width:1;stroke-linecap:butt;stroke-linejoin:miter;stroke:rgb(40.784314%,47.45098%,61.176471%);stroke-opacity:1;stroke-miterlimit:4;" d="M 26.883333 32.283333 L 19.3 32.283333 L 19.3 4.516667 C 19.3 1.166667 14.083333 1.166667 14.083333 4.516667 L 14.083333 32.283333 L 6.483333 32.283333 C 4.05 32.283333 2 34.616667 2 37.383333 C 2 40.166667 4.05 42.483333 6.483333 42.483333 L 14.083333 42.483333 L 14.083333 59.483333 C 14.083333 62.833333 19.3 62.833333 19.3 59.483333 L 19.3 42.483333 L 26.883333 42.483333 C 29.333333 42.483333 31.383333 40.166667 31.383333 37.383333 C 31.383333 34.6 29.333333 32.283333 26.883333 32.283333 " transform="matrix(0.234375,0,0,0.234375,0,0)"/>
<path style="fill-rule:nonzero;fill:rgb(40.784314%,47.45098%,61.176471%);fill-opacity:1;stroke-width:1;stroke-linecap:butt;stroke-linejoin:miter;stroke:rgb(40.784314%,47.45098%,61.176471%);stroke-opacity:1;stroke-miterlimit:4;" d="M 49.733333 55.866667 L 37.366667 55.866667 C 33.533333 55.866667 33.533333 62 37.366667 62 L 49.733333 62 C 53.583333 62 53.583333 55.866667 49.733333 55.866667 " transform="matrix(0.234375,0,0,0.234375,0,0)"/>
<path style="fill-rule:nonzero;fill:rgb(40.784314%,47.45098%,61.176471%);fill-opacity:1;stroke-width:1;stroke-linecap:butt;stroke-linejoin:miter;stroke:rgb(40.784314%,47.45098%,61.176471%);stroke-opacity:1;stroke-miterlimit:4;" d="M 51.616667 45.083333 L 37.366667 45.083333 C 33.533333 45.083333 33.533333 51.233333 37.366667 51.233333 L 51.616667 51.233333 C 55.466667 51.233333 55.466667 45.083333 51.616667 45.083333 " transform="matrix(0.234375,0,0,0.234375,0,0)"/>
<path style="fill-rule:nonzero;fill:rgb(40.784314%,47.45098%,61.176471%);fill-opacity:1;stroke-width:1;stroke-linecap:butt;stroke-linejoin:miter;stroke:rgb(40.784314%,47.45098%,61.176471%);stroke-opacity:1;stroke-miterlimit:4;" d="M 53.483333 34.316667 L 37.366667 34.316667 C 33.533333 34.316667 33.533333 40.45 37.366667 40.45 L 53.483333 40.45 C 57.333333 40.45 57.333333 34.316667 53.483333 34.316667 " transform="matrix(0.234375,0,0,0.234375,0,0)"/>
<path style="fill-rule:nonzero;fill:rgb(40.784314%,47.45098%,61.176471%);fill-opacity:1;stroke-width:1;stroke-linecap:butt;stroke-linejoin:miter;stroke:rgb(40.784314%,47.45098%,61.176471%);stroke-opacity:1;stroke-miterlimit:4;" d="M 55.366667 23.55 L 37.366667 23.55 C 33.533333 23.55 33.533333 29.683333 37.366667 29.683333 L 55.366667 29.683333 C 59.216667 29.683333 59.216667 23.55 55.366667 23.55 M 55.366667 27.683333 L 37.366667 27.683333 C 36.6 27.683333 36.483333 27.016667 36.483333 26.616667 C 36.483333 26.216667 36.6 25.55 37.366667 25.55 L 55.366667 25.55 C 56.133333 25.55 56.25 26.216667 56.25 26.616667 C 56.25 27.016667 56.133333 27.683333 55.366667 27.683333 " transform="matrix(0.234375,0,0,0.234375,0,0)"/>
<path style="fill-rule:nonzero;fill:rgb(40.784314%,47.45098%,61.176471%);fill-opacity:1;stroke-width:1;stroke-linecap:butt;stroke-linejoin:miter;stroke:rgb(40.784314%,47.45098%,61.176471%);stroke-opacity:1;stroke-miterlimit:4;" d="M 57.233333 12.766667 L 37.366667 12.766667 C 33.533333 12.766667 33.533333 18.916667 37.366667 18.916667 L 57.233333 18.916667 C 61.083333 18.916667 61.083333 12.766667 57.233333 12.766667 M 57.233333 16.916667 L 37.366667 16.916667 C 36.6 16.916667 36.483333 16.25 36.483333 15.85 C 36.483333 15.45 36.6 14.766667 37.366667 14.766667 L 57.233333 14.766667 C 58.016667 14.766667 58.116667 15.45 58.116667 15.85 C 58.116667 16.25 58.016667 16.916667 57.233333 16.916667 " transform="matrix(0.234375,0,0,0.234375,0,0)"/>
<path style="fill-rule:nonzero;fill:rgb(40.784314%,47.45098%,61.176471%);fill-opacity:1;stroke-width:1;stroke-linecap:butt;stroke-linejoin:miter;stroke:rgb(40.784314%,47.45098%,61.176471%);stroke-opacity:1;stroke-miterlimit:4;" d="M 59.116667 2 L 37.366667 2 C 33.533333 2 33.533333 8.133333 37.366667 8.133333 L 59.116667 8.133333 C 62.966667 8.133333 62.966667 2 59.116667 2 M 59.116667 6.133333 L 37.366667 6.133333 C 36.6 6.133333 36.483333 5.466667 36.483333 5.066667 C 36.483333 4.666667 36.6 4 37.366667 4 L 59.116667 4 C 59.883333 4 60 4.666667 60 5.066667 C 60 5.466667 59.883333 6.133333 59.116667 6.133333 " transform="matrix(0.234375,0,0,0.234375,0,0)"/>
</g>
</svg>
