<?xml version="1.0" encoding="UTF-8"?>
<svg xmlns="http://www.w3.org/2000/svg" xmlns:xlink="http://www.w3.org/1999/xlink" width="15px" height="15px" viewBox="0 0 15 15" version="1.1">
<g id="surface1">
<path style=" stroke:none;fill-rule:nonzero;fill:rgb(40.784314%,47.45098%,61.176471%);fill-opacity:1;" d="M 10.785156 0.589844 C 9.109375 0.589844 7.585938 1.59375 6.921875 3.117188 L 0.339844 3.117188 C 0.152344 3.117188 0 3.269531 0 3.457031 L 0 14.070312 C 0 14.257812 0.152344 14.410156 0.339844 14.410156 L 13.3125 14.410156 C 13.5 14.410156 13.652344 14.257812 13.652344 14.070312 L 13.652344 8.386719 C 14.558594 6.667969 15 5.496094 15 4.804688 C 15 2.480469 13.109375 0.589844 10.785156 0.589844 Z M 0.679688 9.863281 L 2.023438 9.863281 L 2.023438 12.382812 L 0.679688 12.382812 Z M 12.972656 13.730469 L 0.679688 13.730469 L 0.679688 13.0625 L 4.214844 13.0625 L 4.214844 12.382812 L 2.703125 12.382812 L 2.703125 9.523438 C 2.703125 9.332031 2.550781 9.179688 2.363281 9.179688 L 0.679688 9.179688 L 0.679688 5.144531 L 2.863281 5.144531 L 2.863281 5.816406 L 3.542969 5.816406 L 3.542969 5.144531 L 5.5625 5.144531 L 5.5625 4.464844 L 0.679688 4.464844 L 0.679688 3.796875 L 6.691406 3.796875 C 6.609375 4.128906 6.570312 4.464844 6.570312 4.804688 C 6.570312 5.632812 7.238281 7.226562 8.550781 9.542969 C 9.167969 10.628906 9.792969 11.628906 10.160156 12.214844 L 6.238281 12.214844 C 6.054688 12.214844 5.902344 12.0625 5.902344 11.878906 L 5.902344 7.332031 C 5.902344 6.773438 5.449219 6.316406 4.890625 6.316406 L 2.867188 6.316406 L 2.867188 7 L 4.890625 7 C 5.074219 7 5.222656 7.148438 5.222656 7.332031 L 5.222656 11.878906 C 5.222656 12.4375 5.675781 12.894531 6.238281 12.894531 L 10.785156 12.894531 C 10.898438 12.894531 11.007812 12.835938 11.070312 12.742188 C 11.082031 12.722656 12.023438 11.289062 12.972656 9.625 Z M 12.996094 8.171875 C 12.199219 9.671875 11.25 11.195312 10.785156 11.925781 C 9.582031 10.046875 7.25 6.125 7.25 4.804688 C 7.25 4.390625 7.324219 3.980469 7.464844 3.585938 C 7.972656 2.203125 9.308594 1.269531 10.785156 1.269531 C 12.734375 1.269531 14.320312 2.855469 14.320312 4.804688 C 14.320312 5.207031 14.089844 6.117188 12.996094 8.171875 Z M 12.996094 8.171875 "/>
<path style=" stroke:none;fill-rule:nonzero;fill:rgb(40.784314%,47.45098%,61.176471%);fill-opacity:1;" d="M 10.785156 2.78125 C 9.761719 2.78125 8.929688 3.613281 8.929688 4.636719 C 8.929688 5.660156 9.761719 6.492188 10.785156 6.492188 C 11.808594 6.492188 12.640625 5.660156 12.640625 4.636719 C 12.640625 3.613281 11.808594 2.78125 10.785156 2.78125 Z M 10.785156 5.8125 C 10.136719 5.8125 9.609375 5.285156 9.609375 4.636719 C 9.609375 3.988281 10.136719 3.460938 10.785156 3.460938 C 11.433594 3.460938 11.960938 3.988281 11.960938 4.636719 C 11.960938 5.285156 11.433594 5.8125 10.785156 5.8125 Z M 10.785156 5.8125 "/>
<path style=" stroke:none;fill-rule:nonzero;fill:rgb(40.784314%,47.45098%,61.176471%);fill-opacity:1;" d="M 1.6875 6.316406 L 2.363281 6.316406 L 2.363281 7 L 1.6875 7 Z M 1.6875 6.316406 "/>
</g>
</svg>
