<?xml version="1.0" encoding="UTF-8"?>
<svg xmlns="http://www.w3.org/2000/svg" xmlns:xlink="http://www.w3.org/1999/xlink" width="15px" height="15px" viewBox="0 0 15 15" version="1.1">
<g id="surface1">
<path style=" stroke:none;fill-rule:evenodd;fill:rgb(40.784314%,47.45098%,61.176471%);fill-opacity:1;" d="M 9.03125 0.691406 C 9.339844 0.84375 9.464844 1.222656 9.308594 1.53125 L 8.824219 2.5 L 11.25 2.5 C 11.941406 2.5 12.5 3.058594 12.5 3.75 L 12.5 12.5 C 12.5 13.191406 11.941406 13.75 11.25 13.75 L 3.75 13.75 C 3.058594 13.75 2.5 13.191406 2.5 12.5 L 2.5 3.75 C 2.5 3.058594 3.058594 2.5 3.75 2.5 L 6.175781 2.5 L 5.691406 1.53125 C 5.535156 1.222656 5.660156 0.84375 5.96875 0.691406 C 6.277344 0.535156 6.65625 0.660156 6.808594 0.96875 L 7.5 2.351562 L 8.191406 0.96875 C 8.34375 0.660156 8.722656 0.535156 9.03125 0.691406 Z M 8.4375 8.75 L 6.5625 8.75 C 5.734375 8.75 5.054688 9.394531 5.003906 10.210938 L 5 10.3125 L 5 10.625 C 5 10.96875 5.28125 11.25 5.625 11.25 C 5.945312 11.25 6.210938 11.007812 6.246094 10.699219 L 6.25 10.625 L 6.25 10.3125 C 6.25 10.160156 6.359375 10.03125 6.507812 10.003906 L 6.5625 10 L 8.4375 10 C 8.589844 10 8.71875 10.109375 8.746094 10.257812 L 8.75 10.3125 L 8.75 10.625 C 8.75 10.96875 9.03125 11.25 9.375 11.25 C 9.695312 11.25 9.960938 11.007812 9.996094 10.699219 L 10 10.625 L 10 10.3125 C 10 9.484375 9.355469 8.804688 8.539062 8.753906 Z M 7.5 5.625 C 6.808594 5.625 6.25 6.183594 6.25 6.875 C 6.25 7.566406 6.808594 8.125 7.5 8.125 C 8.191406 8.125 8.75 7.566406 8.75 6.875 C 8.75 6.183594 8.191406 5.625 7.5 5.625 Z M 7.5 5.625 "/>
</g>
</svg>
