<!DOCTYPE svg PUBLIC "-//W3C//DTD SVG 1.1//EN" "http://www.w3.org/Graphics/SVG/1.1/DTD/svg11.dtd">

<!-- Uploaded to: SVG Repo, www.svgrepo.com, Transformed by: SVG Repo Mixer Tools -->
<svg width="800px" height="800px" viewBox="0 0 24 24" fill="none" xmlns="http://www.w3.org/2000/svg">

<g id="SVGRepo_bgCarrier" stroke-width="0"/>

<g id="SVGRepo_tracerCarrier" stroke-linecap="round" stroke-linejoin="round"/>

<g id="SVGRepo_iconCarrier"> <path d="M12.1992 12C14.9606 12 17.1992 9.76142 17.1992 7C17.1992 4.23858 14.9606 2 12.1992 2C9.43779 2 7.19922 4.23858 7.19922 7C7.19922 9.76142 9.43779 12 12.1992 12Z" stroke="#ffffff" stroke-width="1.5" stroke-linecap="round" stroke-linejoin="round"/> <path d="M3 22C3.57038 20.0332 4.74795 18.2971 6.36438 17.0399C7.98081 15.7827 9.95335 15.0687 12 15" stroke="#ffffff" stroke-width="1.5" stroke-linecap="round" stroke-linejoin="round"/> <path d="M18.3795 20.8199C20.2793 20.8199 21.8195 19.2798 21.8195 17.3799C21.8195 15.4801 20.2793 13.9399 18.3795 13.9399C16.4796 13.9399 14.9395 15.4801 14.9395 17.3799C14.9395 19.2798 16.4796 20.8199 18.3795 20.8199Z" stroke="#ffffff" stroke-width="1.5" stroke-linecap="round" stroke-linejoin="round"/> <path d="M22.9406 21.9401L20.8105 19.8101" stroke="#ffffff" stroke-width="1.5" stroke-linecap="round" stroke-linejoin="round"/> </g>

</svg>