<svg width="20" height="20" viewBox="0 0 20 20" fill="none" xmlns="http://www.w3.org/2000/svg">
<path fill-rule="evenodd" clip-rule="evenodd" d="M11.6665 3.33337C12.3295 3.33337 12.9654 3.59677 13.4343 4.06561C13.9031 4.53445 14.1665 5.17033 14.1665 5.83337H16.6665C17.1085 5.83337 17.5325 6.00897 17.845 6.32153C18.1576 6.63409 18.3332 7.05801 18.3332 7.50004V15.8334C18.3332 16.2754 18.1576 16.6993 17.845 17.0119C17.5325 17.3244 17.1085 17.5 16.6665 17.5H3.33317C2.89114 17.5 2.46722 17.3244 2.15466 17.0119C1.8421 16.6993 1.6665 16.2754 1.6665 15.8334V7.50004C1.6665 7.05801 1.8421 6.63409 2.15466 6.32153C2.46722 6.00897 2.89114 5.83337 3.33317 5.83337H5.83317C5.83317 5.17033 6.09656 4.53445 6.5654 4.06561C7.03424 3.59677 7.67013 3.33337 8.33317 3.33337H11.6665ZM12.4998 7.50004H7.49984V15.8334H12.4998V7.50004ZM16.6665 7.50004H14.1665V15.8334H16.6665V7.50004ZM5.83317 7.50004H3.33317V15.8334H5.83317V7.50004ZM11.6665 5.00004H8.33317C8.12906 5.00007 7.93206 5.075 7.77953 5.21064C7.627 5.34627 7.52955 5.53316 7.50567 5.73587L7.49984 5.83337H12.4998C12.4998 5.62926 12.4249 5.43226 12.2892 5.27973C12.1536 5.1272 11.9667 5.02975 11.764 5.00587L11.6665 5.00004Z" fill="#A7A7A7"/>
</svg>
