<?xml version="1.0" encoding="UTF-8"?>
<svg xmlns="http://www.w3.org/2000/svg" xmlns:xlink="http://www.w3.org/1999/xlink" width="15px" height="15px" viewBox="0 0 15 15" version="1.1">
<g id="surface1">
<path style=" stroke:none;fill-rule:evenodd;fill:rgb(40.784314%,47.45098%,61.176471%);fill-opacity:1;" d="M 7.53125 0.78125 L 7.46875 0.78125 C 6.90625 0.78125 6.4375 0.78125 6.066406 0.832031 C 5.671875 0.882812 5.320312 1 5.035156 1.285156 C 4.75 1.570312 4.632812 1.921875 4.582031 2.316406 C 4.53125 2.6875 4.53125 3.15625 4.53125 3.71875 L 4.53125 3.765625 C 3.269531 3.808594 2.507812 3.953125 1.980469 4.480469 C 1.546875 4.917969 1.371094 5.507812 1.300781 6.40625 L 13.699219 6.40625 C 13.628906 5.507812 13.453125 4.917969 13.019531 4.480469 C 12.492188 3.953125 11.730469 3.808594 10.46875 3.765625 L 10.46875 3.71875 C 10.46875 3.15625 10.46875 2.6875 10.417969 2.316406 C 10.367188 1.921875 10.25 1.570312 9.964844 1.285156 C 9.679688 1 9.328125 0.882812 8.933594 0.832031 C 8.5625 0.78125 8.09375 0.78125 7.53125 0.78125 Z M 9.53125 3.75 C 9.53125 3.148438 9.53125 2.742188 9.488281 2.441406 C 9.449219 2.152344 9.382812 2.027344 9.300781 1.949219 C 9.222656 1.867188 9.097656 1.800781 8.808594 1.761719 C 8.507812 1.71875 8.101562 1.71875 7.5 1.71875 C 6.898438 1.71875 6.492188 1.71875 6.191406 1.761719 C 5.902344 1.800781 5.777344 1.867188 5.699219 1.949219 C 5.617188 2.027344 5.550781 2.152344 5.511719 2.441406 C 5.46875 2.742188 5.46875 3.148438 5.46875 3.75 C 5.714844 3.75 5.972656 3.75 6.25 3.75 L 8.75 3.75 C 9.027344 3.75 9.285156 3.75 9.53125 3.75 Z M 9.53125 3.75 "/>
<path style=" stroke:none;fill-rule:nonzero;fill:rgb(40.784314%,47.45098%,61.176471%);fill-opacity:1;" d="M 1.25 8.75 C 1.25 8.226562 1.25 7.757812 1.257812 7.34375 L 13.742188 7.34375 C 13.75 7.757812 13.75 8.226562 13.75 8.75 C 13.75 9.273438 13.75 9.742188 13.742188 10.15625 L 1.257812 10.15625 C 1.25 9.742188 1.25 9.273438 1.25 8.75 Z M 1.25 8.75 "/>
<path style=" stroke:none;fill-rule:nonzero;fill:rgb(40.784314%,47.45098%,61.176471%);fill-opacity:1;" d="M 1.300781 11.09375 C 1.371094 11.992188 1.546875 12.582031 1.980469 13.019531 C 2.714844 13.75 3.894531 13.75 6.25 13.75 L 8.75 13.75 C 11.105469 13.75 12.285156 13.75 13.019531 13.019531 C 13.453125 12.582031 13.628906 11.992188 13.699219 11.09375 Z M 1.300781 11.09375 "/>
</g>
</svg>
