<?xml version="1.0" encoding="UTF-8"?>
<svg xmlns="http://www.w3.org/2000/svg" xmlns:xlink="http://www.w3.org/1999/xlink" width="15px" height="15px" viewBox="0 0 15 15" version="1.1">
<g id="surface1">
<path style=" stroke:none;fill-rule:nonzero;fill:rgb(40.784314%,47.45098%,61.176471%);fill-opacity:1;" d="M 11.785156 2.074219 C 11.933594 2.074219 12.054688 1.953125 12.054688 1.804688 L 12.054688 0.269531 C 12.054688 0.121094 11.933594 0 11.785156 0 L 3.214844 0 C 3.066406 0 2.945312 0.121094 2.945312 0.269531 L 2.945312 1.804688 C 2.945312 1.953125 3.066406 2.074219 3.214844 2.074219 L 3.5 2.074219 C 3.535156 4.285156 4.183594 6.292969 5.234375 7.5 C 4.183594 8.707031 3.535156 10.714844 3.5 12.925781 L 3.214844 12.925781 C 3.066406 12.925781 2.945312 13.046875 2.945312 13.195312 L 2.945312 14.730469 C 2.945312 14.878906 3.066406 15 3.214844 15 L 11.785156 15 C 11.933594 15 12.054688 14.878906 12.054688 14.730469 L 12.054688 13.195312 C 12.054688 13.046875 11.933594 12.925781 11.785156 12.925781 L 11.5 12.925781 C 11.464844 10.714844 10.816406 8.707031 9.761719 7.5 C 10.816406 6.292969 11.464844 4.285156 11.5 2.074219 Z M 8.691406 7.109375 C 8.578125 7.210938 8.515625 7.351562 8.515625 7.5 C 8.515625 7.648438 8.578125 7.792969 8.691406 7.890625 C 9.738281 8.8125 10.425781 10.773438 10.460938 12.925781 L 4.539062 12.925781 C 4.574219 10.773438 5.261719 8.8125 6.308594 7.890625 C 6.421875 7.789062 6.484375 7.648438 6.484375 7.5 C 6.484375 7.351562 6.421875 7.210938 6.308594 7.109375 C 5.261719 6.1875 4.574219 4.222656 4.539062 2.074219 L 10.460938 2.074219 C 10.425781 4.226562 9.738281 6.1875 8.691406 7.109375 Z M 8.691406 7.109375 "/>
<path style=" stroke:none;fill-rule:nonzero;fill:rgb(40.784314%,47.45098%,61.176471%);fill-opacity:1;" d="M 5.210938 3.027344 C 5.527344 4.761719 6.214844 5.882812 6.753906 6.359375 C 6.921875 6.507812 7.054688 6.695312 7.144531 6.902344 L 7.144531 8.097656 C 7.054688 8.304688 6.921875 8.492188 6.753906 8.640625 C 6.214844 9.117188 5.527344 10.238281 5.210938 11.972656 C 5.195312 12.078125 5.222656 12.183594 5.289062 12.261719 C 5.355469 12.34375 5.457031 12.390625 5.5625 12.390625 L 9.4375 12.390625 C 9.542969 12.390625 9.644531 12.34375 9.710938 12.261719 C 9.777344 12.183594 9.804688 12.078125 9.789062 11.972656 C 9.472656 10.238281 8.785156 9.117188 8.246094 8.640625 C 8.078125 8.492188 7.945312 8.304688 7.855469 8.097656 L 7.855469 6.902344 C 7.945312 6.695312 8.078125 6.507812 8.246094 6.359375 C 8.785156 5.886719 9.472656 4.761719 9.789062 3.027344 C 9.804688 2.925781 9.777344 2.816406 9.710938 2.738281 C 9.644531 2.65625 9.542969 2.609375 9.4375 2.609375 L 5.5625 2.609375 C 5.457031 2.609375 5.355469 2.65625 5.289062 2.738281 C 5.222656 2.816406 5.195312 2.925781 5.210938 3.027344 Z M 5.210938 3.027344 "/>
</g>
</svg>
